<?xml version="1.0" encoding="UTF-8" standalone="no"?>
<!DOCTYPE svg PUBLIC "-//W3C//DTD SVG 1.1//EN" "http://www.w3.org/Graphics/SVG/1.1/DTD/svg11.dtd">
<svg width="100%" height="100%" viewBox="0 0 500 500" version="1.1" xmlns="http://www.w3.org/2000/svg" xmlns:xlink="http://www.w3.org/1999/xlink" xml:space="preserve" xmlns:serif="http://www.serif.com/" style="fill-rule:evenodd;clip-rule:evenodd;stroke-linejoin:round;stroke-miterlimit:2;">
    <g id="path3611" transform="matrix(1.67785,0,0,1.67785,-906.338,-909.311)">
        <path d="M633.898,812.045C746.359,812.045 807.855,718.877 807.855,638.089C807.855,635.442 807.801,632.808 807.682,630.185C819.62,621.555 829.996,610.786 838.18,598.526C827.225,603.395 815.436,606.673 803.069,608.151C815.692,600.582 825.383,588.608 829.955,574.334C818.142,581.337 805.059,586.427 791.131,589.174C779.974,577.29 764.09,569.858 746.502,569.858C712.738,569.858 685.358,597.238 685.358,630.99C685.358,635.788 685.894,640.455 686.943,644.931C636.128,642.374 591.069,618.045 560.918,581.051C555.667,590.086 552.639,600.582 552.639,611.781C552.639,632.993 563.433,651.719 579.847,662.674C569.816,662.364 560.393,659.61 552.156,655.027C552.147,655.284 552.147,655.534 552.147,655.808C552.147,685.417 573.222,710.14 601.199,715.742C596.061,717.143 590.655,717.894 585.077,717.894C581.143,717.894 577.311,717.507 573.586,716.791C581.369,741.084 603.94,758.762 630.701,759.257C609.775,775.659 583.414,785.427 554.764,785.427C549.835,785.427 544.965,785.147 540.179,784.581C567.238,801.925 599.369,812.045 633.901,812.045" style="fill:white;fill-rule:nonzero;"/>
    </g>
</svg>
